<svg xmlns="http://www.w3.org/2000/svg" xmlns:xlink="http://www.w3.org/1999/xlink" version="1.1" width="1000" height="1000" viewBox="0 0 1000 1000" xml:space="preserve">
<desc>Created with Fabric.js 3.5.0</desc>
<defs>
</defs>
<rect x="0" y="0" width="100%" height="100%" fill="#ffffff"/>
<g transform="matrix(0.4451 0 0 0.4451 204.5714 445.8863)" id="258726">
<g style="" vector-effect="non-scaling-stroke">
		<g transform="matrix(1 0 0 1 0 0.001)" id="Calque_1">
<path style="stroke: none; stroke-width: 1; stroke-dasharray: none; stroke-linecap: butt; stroke-dashoffset: 0; stroke-linejoin: miter; stroke-miterlimit: 4; is-custom-font: none; font-file-url: none; fill: rgb(32,172,195); fill-rule: nonzero; opacity: 1;" transform=" translate(-256, -256.001)" d="M 498.612 275.051 c 1.396 -17.13 2.046 -36.142 1.884 -55.253 c -0.001 -0.366 -0.004 -0.673 -0.007 -0.917 l -0.002 -0.153 c 0 -8.192 -5.141 -16.462 -18.167 -28.964 c 0.014 -0.021 0.027 -0.042 0.043 -0.063 l 0.079 -0.116 c 3.421 -5.062 5.792 -14.049 1.203 -22.727 c -4.742 -8.953 -14.405 -13.492 -28.72 -13.492 c -12.435 0 -21.304 4.869 -27.087 11.46 c -9.813 -17.57 -22.796 -35.881 -36.612 -41.796 c -6.024 -2.583 -19.192 -5.565 -71.168 -8.084 c -27.5 -1.333 -54.897 -1.954 -62.552 -2.111 l -0.129 -0.026 l -3.127 0.005 l -0.112 0.028 c -8.114 0.168 -35.107 0.79 -62.2 2.104 c -51.978 2.52 -65.143 5.501 -71.156 8.081 c -13.821 5.917 -26.805 24.227 -36.617 41.796 c -5.781 -6.59 -14.651 -11.456 -27.099 -11.456 c -14.308 0 -23.967 4.539 -28.718 13.505 c -4.589 8.683 -2.203 17.679 1.282 22.814 c 0.018 0.025 0.035 0.052 0.053 0.077 c -13.027 12.501 -18.169 20.771 -18.169 28.938 l -0.001 0.172 c -0.004 0.246 -0.008 0.557 -0.008 0.927 c -0.16 19.112 0.49 38.123 1.884 55.251 c -4.171 10.554 -4.152 21.752 -4.059 24.772 v 69.656 c 0 16.383 13.313 29.714 29.675 29.714 h 49.18 c 14.141 0 26.006 -9.93 28.99 -23.183 c 36.068 0.941 82.669 1.417 138.825 1.417 s 102.756 -0.476 138.825 -1.417 c 2.981 13.253 14.844 23.183 28.979 23.183 h 49.19 c 16.363 0 29.676 -13.331 29.676 -29.714 v -69.659 C 502.763 296.802 502.781 285.599 498.612 275.051 z" stroke-linecap="round"/>
</g>
		<g transform="matrix(1 0 0 1 0 0.001)" id="Calque_1">
<linearGradient id="SVGID_4" gradientUnits="userSpaceOnUse" gradientTransform="matrix(1 0 0 1 0 0)" x1="256.0002" y1="112.8083" x2="256.0002" y2="399.1926">
<stop offset="0%" style="stop-color:rgb(255,255,255);stop-opacity: 0"/>
<stop offset="100%" style="stop-color:rgb(0,0,0);stop-opacity: 0.3"/>
</linearGradient>
<path style="stroke: none; stroke-width: 1; stroke-dasharray: none; stroke-linecap: butt; stroke-dashoffset: 0; stroke-linejoin: miter; stroke-miterlimit: 4; is-custom-font: none; font-file-url: none; fill: url(#SVGID_4); fill-rule: nonzero; opacity: 1;" transform=" translate(-256, -256.001)" d="M 498.612 275.051 c 1.396 -17.13 2.046 -36.142 1.884 -55.253 c -0.001 -0.366 -0.004 -0.673 -0.007 -0.917 l -0.002 -0.153 c 0 -8.192 -5.141 -16.462 -18.167 -28.964 c 0.014 -0.021 0.027 -0.042 0.043 -0.063 l 0.079 -0.116 c 3.421 -5.062 5.792 -14.049 1.203 -22.727 c -4.742 -8.953 -14.405 -13.492 -28.72 -13.492 c -12.435 0 -21.304 4.869 -27.087 11.46 c -9.813 -17.57 -22.796 -35.881 -36.612 -41.796 c -6.024 -2.583 -19.192 -5.565 -71.168 -8.084 c -27.5 -1.333 -54.897 -1.954 -62.552 -2.111 l -0.129 -0.026 l -3.127 0.005 l -0.112 0.028 c -8.114 0.168 -35.107 0.79 -62.2 2.104 c -51.978 2.52 -65.143 5.501 -71.156 8.081 c -13.821 5.917 -26.805 24.227 -36.617 41.796 c -5.781 -6.59 -14.651 -11.456 -27.099 -11.456 c -14.308 0 -23.967 4.539 -28.718 13.505 c -4.589 8.683 -2.203 17.679 1.282 22.814 c 0.018 0.025 0.035 0.052 0.053 0.077 c -13.027 12.501 -18.169 20.771 -18.169 28.938 l -0.001 0.172 c -0.004 0.246 -0.008 0.557 -0.008 0.927 c -0.16 19.112 0.49 38.123 1.884 55.251 c -4.171 10.554 -4.152 21.752 -4.059 24.772 v 69.656 c 0 16.383 13.313 29.714 29.675 29.714 h 49.18 c 14.141 0 26.006 -9.93 28.99 -23.183 c 36.068 0.941 82.669 1.417 138.825 1.417 s 102.756 -0.476 138.825 -1.417 c 2.981 13.253 14.844 23.183 28.979 23.183 h 49.19 c 16.363 0 29.676 -13.331 29.676 -29.714 v -69.659 C 502.763 296.802 502.781 285.599 498.612 275.051 z" stroke-linecap="round"/>
</g>
		<g transform="matrix(1 0 0 1 -159.1015 45.9465)" id="Calque_1">
<path style="stroke: none; stroke-width: 1; stroke-dasharray: none; stroke-linecap: butt; stroke-dashoffset: 0; stroke-linejoin: miter; stroke-miterlimit: 4; is-custom-font: none; font-file-url: none; fill: rgb(255,255,255); fill-rule: nonzero; opacity: 1;" transform=" translate(-96.8985, -301.9465)" d="M 96.903 288.647 c -7.331 0 -13.304 5.964 -13.304 13.295 c 0 7.33 5.973 13.304 13.304 13.304 c 7.332 0 13.295 -5.974 13.295 -13.304 C 110.198 294.611 104.234 288.647 96.903 288.647 z" stroke-linecap="round"/>
</g>
		<g transform="matrix(1 0 0 1 -192.3988 81.9605)" id="Calque_1">
<path style="stroke: none; stroke-width: 1; stroke-dasharray: none; stroke-linecap: butt; stroke-dashoffset: 0; stroke-linejoin: miter; stroke-miterlimit: 4; is-custom-font: none; font-file-url: none; fill: rgb(255,255,255); fill-rule: nonzero; opacity: 1;" transform=" translate(-63.6013, -337.9605)" d="M 30.202 297.621 c -0.019 1.064 0.01 1.709 0.01 1.738 c 0 0.048 0.009 0.094 0.009 0.152 v 69.967 c 0 4.862 3.941 8.822 8.784 8.822 h 49.18 c 4.863 0 8.822 -3.96 8.822 -8.822 v -8.327 c -13.143 -0.467 -24.51 -1.017 -34.053 -1.635 C 46.972 358.472 35.966 337.648 30.202 297.621 z" stroke-linecap="round"/>
</g>
		<g transform="matrix(1 0 0 1 0 48.4204)" id="Calque_1">
<path style="stroke: none; stroke-width: 1; stroke-dasharray: none; stroke-linecap: butt; stroke-dashoffset: 0; stroke-linejoin: miter; stroke-miterlimit: 4; is-custom-font: none; font-file-url: none; fill: rgb(255,255,255); fill-rule: nonzero; opacity: 1;" transform=" translate(-256, -304.4205)" d="M 366.592 299.293 c -9.867 -2.611 -83.147 -2.393 -110.554 -2.09 h -0.076 c -27.406 -0.313 -100.687 -0.521 -110.553 2.09 c -6.713 1.775 -9.98 8.271 -11.443 12.525 h 244.068 C 376.573 307.563 373.306 301.068 366.592 299.293 z" stroke-linecap="round"/>
</g>
		<g transform="matrix(1 0 0 1 -197.1435 -77.4225)" id="Calque_1">
<path style="stroke: none; stroke-width: 1; stroke-dasharray: none; stroke-linecap: butt; stroke-dashoffset: 0; stroke-linejoin: miter; stroke-miterlimit: 4; is-custom-font: none; font-file-url: none; fill: rgb(255,255,255); fill-rule: nonzero; opacity: 1;" transform=" translate(-58.8565, -178.5775)" d="M 62.945 182.794 c 0.826 -0.057 3.722 -0.104 8.053 -0.143 c -1.377 -3.703 -4.9 -8.394 -13.932 -8.394 c -8.584 0 -10.084 2.098 -10.227 2.335 c -0.076 0.143 -0.114 0.295 -0.124 0.447 c 0.143 0.028 0.286 0.057 0.418 0.095 c 3.789 0.854 10.494 2.364 15.146 5.764 C 62.517 182.851 62.736 182.814 62.945 182.794 z" stroke-linecap="round"/>
</g>
		<g transform="matrix(1 0 0 1 159.098 45.9415)" id="Calque_1">
<path style="stroke: none; stroke-width: 1; stroke-dasharray: none; stroke-linecap: butt; stroke-dashoffset: 0; stroke-linejoin: miter; stroke-miterlimit: 4; is-custom-font: none; font-file-url: none; fill: rgb(255,255,255); fill-rule: nonzero; opacity: 1;" transform=" translate(-415.098, -301.9415)" d="M 415.098 288.647 c -7.331 0 -13.294 5.964 -13.294 13.295 c 0 7.33 5.963 13.294 13.294 13.294 c 7.33 0 13.294 -5.964 13.294 -13.294 C 428.392 294.611 422.428 288.647 415.098 288.647 z" stroke-linecap="round"/>
</g>
		<g transform="matrix(1 0 0 1 -0.001 -60.6135)" id="Calque_1">
<path style="stroke: none; stroke-width: 1; stroke-dasharray: none; stroke-linecap: butt; stroke-dashoffset: 0; stroke-linejoin: miter; stroke-miterlimit: 4; is-custom-font: none; font-file-url: none; fill: rgb(255,255,255); fill-rule: nonzero; opacity: 1;" transform=" translate(-255.999, -195.3865)" d="M 337.895 189.404 c -3.571 0.37 -5.356 -2.335 -6.543 -4.122 c -1.196 -1.813 -2.432 -3.674 -5.471 -4.89 c -4.908 -1.966 -45.457 -3 -69.881 -3.191 c -24.424 0.19 -64.972 1.225 -69.882 3.191 c -3.039 1.216 -4.273 3.077 -5.47 4.89 c -1.188 1.786 -2.982 4.501 -6.562 4.122 c -0.807 -0.066 -5.29 -0.123 -12.003 -0.161 c 1.376 6.78 4.159 16.381 9.647 24.329 h 168.537 c 5.487 -7.948 8.271 -17.549 9.648 -24.329 C 343.194 189.281 338.711 189.337 337.895 189.404 z M 317.586 207.021 H 256 h -61.587 c -1.835 0 -3.324 -1.488 -3.324 -3.324 c 0 -1.835 1.488 -3.324 3.324 -3.324 H 256 h 61.586 c 1.836 0 3.324 1.488 3.324 3.324 C 320.91 205.533 319.422 207.021 317.586 207.021 z" stroke-linecap="round"/>
</g>
		<g transform="matrix(1 0 0 1 -0.0005 -16.624)" id="Calque_1">
<path style="stroke: none; stroke-width: 1; stroke-dasharray: none; stroke-linecap: butt; stroke-dashoffset: 0; stroke-linejoin: miter; stroke-miterlimit: 4; is-custom-font: none; font-file-url: none; fill: rgb(255,255,255); fill-rule: nonzero; opacity: 1;" transform=" translate(-255.9995, -239.376)" d="M 137.508 256.075 c 29.182 1.443 68.106 2.459 118.492 2.459 c 50.387 0 89.311 -1.017 118.492 -2.459 l 4.121 -35.857 H 133.386 L 137.508 256.075 z" stroke-linecap="round"/>
</g>
		<g transform="matrix(1 0 0 1 197.1435 -77.421)" id="Calque_1">
<path style="stroke: none; stroke-width: 1; stroke-dasharray: none; stroke-linecap: butt; stroke-dashoffset: 0; stroke-linejoin: miter; stroke-miterlimit: 4; is-custom-font: none; font-file-url: none; fill: rgb(255,255,255); fill-rule: nonzero; opacity: 1;" transform=" translate(-453.1435, -178.579)" d="M 449.721 182.899 c 4.644 -3.399 11.348 -4.919 15.146 -5.773 c 0.133 -0.028 0.276 -0.057 0.417 -0.085 c -0.009 -0.152 -0.046 -0.313 -0.132 -0.447 c -0.143 -0.237 -1.633 -2.335 -10.227 -2.335 c -9.031 0 -12.556 4.691 -13.922 8.394 c 4.33 0.039 7.226 0.086 8.052 0.143 C 449.264 182.814 449.483 182.851 449.721 182.899 z" stroke-linecap="round"/>
</g>
		<g transform="matrix(1 0 0 1 -0.0014 16.8461)" id="Calque_1">
<path style="stroke: none; stroke-width: 1; stroke-dasharray: none; stroke-linecap: butt; stroke-dashoffset: 0; stroke-linejoin: miter; stroke-miterlimit: 4; is-custom-font: none; font-file-url: none; fill: rgb(255,255,255); fill-rule: nonzero; opacity: 1;" transform=" translate(-255.9985, -272.846)" d="M 479.604 219.924 c 0 -0.493 -0.009 -0.864 -0.009 -1.111 c -1.073 -5.147 -24.063 -26.085 -30.34 -29.086 c -0.114 -0.038 -0.228 -0.095 -0.341 -0.152 c -0.152 -0.066 -0.296 -0.124 -0.419 -0.152 c -1.092 -0.057 -4.985 -0.114 -10.701 -0.152 c -0.295 0.085 -0.608 0.152 -0.932 0.152 c -0.343 0 -0.664 -0.067 -0.978 -0.161 c -4.416 -0.029 -9.744 -0.048 -15.603 -0.066 c -0.37 0.142 -0.759 0.228 -1.148 0.228 c -0.419 0 -0.827 -0.085 -1.207 -0.237 c -19.655 -0.047 -44.46 -0.038 -61.229 0.028 c -1.34 7.207 -3.866 16.191 -8.566 24.357 H 452.74 c 1.699 0 3.124 1.282 3.305 2.973 c 0.759 7.359 2.611 31.774 -5.774 37.224 c -8.451 5.5 -72.854 11.415 -194.271 11.415 s -185.82 -5.915 -194.271 -11.415 c -8.385 -5.45 -6.533 -29.865 -5.774 -37.224 c 0.181 -1.69 1.605 -2.973 3.305 -2.973 h 104.609 c -4.71 -8.167 -7.227 -17.15 -8.566 -24.357 c -16.77 -0.066 -41.573 -0.076 -61.231 -0.028 c -0.379 0.152 -0.788 0.237 -1.206 0.237 c -0.39 0 -0.778 -0.085 -1.159 -0.228 c -5.85 0.019 -11.167 0.038 -15.593 0.066 c -0.313 0.094 -0.636 0.161 -0.978 0.161 c -0.333 0 -0.637 -0.057 -0.941 -0.152 c -5.707 0.038 -9.6 0.095 -10.692 0.152 c -0.123 0.028 -0.266 0.085 -0.408 0.152 c -0.124 0.057 -0.238 0.114 -0.361 0.162 c -6.277 3 -29.258 23.929 -30.331 29.086 c 0 0.237 -0.01 0.608 -0.01 1.101 c -0.512 60.367 7.293 131.407 30.996 132.955 c 37.11 2.432 101.921 3.656 192.609 3.656 s 155.498 -1.225 192.609 -3.656 C 472.312 351.331 480.117 280.291 479.604 219.924 z M 96.903 321.893 c -10.997 0 -19.951 -8.955 -19.951 -19.951 S 85.906 282 96.903 282 s 19.942 8.946 19.942 19.942 S 107.899 321.893 96.903 321.893 z M 384.863 317.305 c -0.627 0.732 -1.548 1.16 -2.517 1.16 H 129.655 c -0.969 0 -1.89 -0.428 -2.517 -1.16 c -0.636 -0.739 -0.911 -1.718 -0.769 -2.677 c 0.114 -0.731 2.934 -17.957 17.339 -21.765 c 12.725 -3.372 107.828 -2.355 112.292 -2.309 c 4.464 -0.057 99.566 -1.063 112.291 2.309 c 14.405 3.808 17.226 21.033 17.331 21.765 C 385.774 315.588 385.498 316.566 384.863 317.305 z M 415.098 321.884 c -10.996 0 -19.941 -8.945 -19.941 -19.941 S 404.102 282 415.098 282 c 10.997 0 19.941 8.946 19.941 19.942 S 426.095 321.884 415.098 321.884 z" stroke-linecap="round"/>
</g>
		<g transform="matrix(1 0 0 1 155.6795 -19.2535)" id="Calque_1">
<path style="stroke: none; stroke-width: 1; stroke-dasharray: none; stroke-linecap: butt; stroke-dashoffset: 0; stroke-linejoin: miter; stroke-miterlimit: 4; is-custom-font: none; font-file-url: none; fill: rgb(255,255,255); fill-rule: nonzero; opacity: 1;" transform=" translate(-411.6795, -236.7465)" d="M 411.68 226.875 c -5.441 0 -9.876 4.426 -9.876 9.876 c 0 5.441 4.435 9.867 9.876 9.867 c 5.44 0 9.875 -4.425 9.875 -9.867 C 421.555 231.301 417.12 226.875 411.68 226.875 z" stroke-linecap="round"/>
</g>
		<g transform="matrix(1 0 0 1 -155.678 -19.2535)" id="Calque_1">
<path style="stroke: none; stroke-width: 1; stroke-dasharray: none; stroke-linecap: butt; stroke-dashoffset: 0; stroke-linejoin: miter; stroke-miterlimit: 4; is-custom-font: none; font-file-url: none; fill: rgb(255,255,255); fill-rule: nonzero; opacity: 1;" transform=" translate(-100.322, -236.7465)" d="M 100.322 246.618 c 5.441 0 9.876 -4.425 9.876 -9.867 c 0 -5.45 -4.435 -9.876 -9.876 -9.876 s -9.876 4.426 -9.876 9.876 C 90.446 242.193 94.88 246.618 100.322 246.618 z" stroke-linecap="round"/>
</g>
		<g transform="matrix(1 0 0 1 192.3972 81.9645)" id="Calque_1">
<path style="stroke: none; stroke-width: 1; stroke-dasharray: none; stroke-linecap: butt; stroke-dashoffset: 0; stroke-linejoin: miter; stroke-miterlimit: 4; is-custom-font: none; font-file-url: none; fill: rgb(255,255,255); fill-rule: nonzero; opacity: 1;" transform=" translate(-448.3972, -337.9645)" d="M 449.046 359.516 c -9.543 0.618 -20.91 1.168 -34.053 1.635 v 8.327 c 0 4.862 3.96 8.822 8.812 8.822 h 49.19 c 4.844 0 8.784 -3.96 8.784 -8.822 v -69.967 c 0 -0.059 0 -0.104 0.009 -0.162 c 0 -0.02 0.02 -0.664 0.011 -1.72 C 476.034 337.648 465.029 358.472 449.046 359.516 z" stroke-linecap="round"/>
</g>
		<g transform="matrix(1 0 0 1 -155.678 -19.2535)" id="Calque_1">
<path style="stroke: none; stroke-width: 1; stroke-dasharray: none; stroke-linecap: butt; stroke-dashoffset: 0; stroke-linejoin: miter; stroke-miterlimit: 4; is-custom-font: none; font-file-url: none; fill: rgb(5,44,73); fill-rule: nonzero; opacity: 1;" transform=" translate(-100.322, -236.7465)" d="M 100.322 253.265 c 9.106 0 16.523 -7.407 16.523 -16.514 c 0 -9.117 -7.417 -16.523 -16.523 -16.523 c -9.107 0 -16.523 7.407 -16.523 16.523 C 83.798 245.858 91.215 253.265 100.322 253.265 z M 100.322 226.875 c 5.441 0 9.876 4.426 9.876 9.876 c 0 5.441 -4.435 9.867 -9.876 9.867 s -9.876 -4.425 -9.876 -9.867 C 90.446 231.301 94.88 226.875 100.322 226.875 z" stroke-linecap="round"/>
</g>
		<g transform="matrix(1 0 0 1 -159.1015 45.9465)" id="Calque_1">
<path style="stroke: none; stroke-width: 1; stroke-dasharray: none; stroke-linecap: butt; stroke-dashoffset: 0; stroke-linejoin: miter; stroke-miterlimit: 4; is-custom-font: none; font-file-url: none; fill: rgb(5,44,73); fill-rule: nonzero; opacity: 1;" transform=" translate(-96.8985, -301.9465)" d="M 96.903 282 c -10.997 0 -19.951 8.946 -19.951 19.942 s 8.954 19.951 19.951 19.951 s 19.942 -8.955 19.942 -19.951 S 107.899 282 96.903 282 z M 96.903 315.246 c -7.331 0 -13.304 -5.974 -13.304 -13.304 c 0 -7.331 5.973 -13.295 13.304 -13.295 c 7.332 0 13.295 5.964 13.295 13.295 C 110.198 309.272 104.234 315.246 96.903 315.246 z" stroke-linecap="round"/>
</g>
		<g transform="matrix(1 0 0 1 -0.0023 48.4188)" id="Calque_1">
<path style="stroke: none; stroke-width: 1; stroke-dasharray: none; stroke-linecap: butt; stroke-dashoffset: 0; stroke-linejoin: miter; stroke-miterlimit: 4; is-custom-font: none; font-file-url: none; fill: rgb(5,44,73); fill-rule: nonzero; opacity: 1;" transform=" translate(-255.9978, -304.4188)" d="M 368.291 292.864 c -12.725 -3.372 -107.827 -2.365 -112.291 -2.309 c -4.463 -0.047 -99.566 -1.063 -112.292 2.309 c -14.405 3.808 -17.226 21.033 -17.339 21.765 c -0.143 0.959 0.132 1.938 0.769 2.677 c 0.627 0.732 1.548 1.16 2.517 1.16 h 252.691 c 0.969 0 1.89 -0.428 2.517 -1.16 c 0.636 -0.739 0.911 -1.718 0.76 -2.677 C 385.517 313.897 382.697 296.672 368.291 292.864 z M 133.966 311.818 c 1.462 -4.255 4.729 -10.75 11.443 -12.525 c 9.867 -2.611 83.147 -2.403 110.553 -2.09 h 0.076 c 27.406 -0.303 100.687 -0.521 110.554 2.09 c 6.714 1.775 9.98 8.271 11.442 12.525 H 133.966 z" stroke-linecap="round"/>
</g>
		<g transform="matrix(1 0 0 1 -0.0009 0.0005)" id="Calque_1">
<path style="stroke: none; stroke-width: 1; stroke-dasharray: none; stroke-linecap: butt; stroke-dashoffset: 0; stroke-linejoin: miter; stroke-miterlimit: 4; is-custom-font: none; font-file-url: none; fill: rgb(5,44,73); fill-rule: nonzero; opacity: 1;" transform=" translate(-255.9991, -256.0005)" d="M 484.106 277.518 c 1.567 -17.559 2.317 -37.481 2.146 -57.651 c 0 -0.531 -0.009 -0.921 -0.009 -1.139 c 0 -3.913 -5.441 -10.959 -16.182 -20.949 c -2.943 -2.734 -8.509 -7.739 -13.446 -11.215 c 3.353 -1.52 7.397 -2.431 9.715 -2.953 c 2.45 -0.551 3.466 -0.778 4.312 -2.003 c 0.911 -1.348 2.175 -4.758 0.417 -8.082 c -2.107 -3.979 -7.388 -5.917 -16.133 -5.917 c -14.862 0 -19.421 9.763 -20.807 14.995 c -3.847 -0.028 -8.262 -0.047 -13.029 -0.057 c -4.548 -9.097 -20.948 -40.206 -35.477 -46.426 c -15.545 -6.666 -117.923 -8.84 -129.546 -9.068 c -0.019 0 -0.039 0.009 -0.057 0.009 c -0.028 0 -0.047 -0.009 -0.076 -0.009 c -11.623 0.228 -114.01 2.403 -129.546 9.068 c -14.529 6.22 -30.929 37.33 -35.478 46.426 c -4.767 0.01 -9.183 0.029 -13.038 0.048 c -1.377 -5.223 -5.945 -14.985 -20.807 -14.985 c -8.745 0 -14.016 1.938 -16.124 5.917 c -1.756 3.323 -0.494 6.733 0.427 8.091 c 0.836 1.216 1.853 1.443 4.302 1.994 c 2.317 0.522 6.363 1.434 9.715 2.953 c -4.938 3.476 -10.502 8.48 -13.446 11.215 c -10.74 9.99 -16.182 17.036 -16.182 20.949 c 0 0.218 -0.01 0.608 -0.01 1.139 c -0.171 20.17 0.58 40.093 2.146 57.651 c -4.7 8.983 -4.368 20.844 -4.32 22.059 v 69.901 c 0 8.527 6.922 15.469 15.431 15.469 h 49.18 c 8.528 0 15.469 -6.941 15.469 -15.469 v -8.11 c 37.624 1.206 88.599 1.813 152.346 1.813 s 114.722 -0.607 152.346 -1.813 v 8.11 c 0 8.527 6.942 15.469 15.459 15.469 h 49.19 c 8.509 0 15.431 -6.941 15.431 -15.469 v -69.901 C 488.473 298.362 488.807 286.502 484.106 277.518 z M 454.925 174.258 c 8.594 0 10.084 2.098 10.227 2.335 c 0.086 0.133 0.123 0.295 0.132 0.447 c -0.141 0.028 -0.284 0.057 -0.417 0.085 c -3.798 0.854 -10.502 2.374 -15.146 5.773 c -0.238 -0.047 -0.457 -0.085 -0.666 -0.104 c -0.826 -0.057 -3.722 -0.104 -8.052 -0.143 C 442.369 178.948 445.894 174.258 454.925 174.258 z M 128.999 142.227 c 12.136 -5.194 95.73 -7.92 127.001 -8.528 c 31.271 0.608 114.864 3.333 127.001 8.528 c 10.18 4.368 23.797 27.273 30.605 40.301 c -19.979 -0.047 -43.947 -0.029 -59.674 0.057 c -0.094 -0.009 -0.189 -0.009 -0.284 0 c -8.232 0.038 -14.15 0.104 -15.953 0.18 c -0.229 -0.294 -0.551 -0.779 -0.798 -1.149 c -1.425 -2.156 -3.571 -5.413 -8.546 -7.398 c -7.532 -3.01 -61.574 -3.58 -72.324 -3.665 c -0.009 0 -0.009 0 -0.019 0 h -0.038 c -10.75 0.085 -64.792 0.655 -72.323 3.665 c -4.976 1.985 -7.122 5.242 -8.546 7.398 c -0.247 0.37 -0.57 0.854 -0.797 1.149 c -1.805 -0.076 -7.73 -0.142 -15.954 -0.18 c -0.095 -0.009 -0.189 -0.009 -0.284 0 c -15.726 -0.086 -39.694 -0.104 -59.674 -0.066 C 105.203 169.5 118.82 146.595 128.999 142.227 z M 171.732 213.571 c -5.489 -7.948 -8.271 -17.549 -9.647 -24.329 c 6.713 0.038 11.196 0.095 12.003 0.161 c 3.58 0.38 5.374 -2.335 6.562 -4.122 c 1.197 -1.813 2.431 -3.674 5.47 -4.89 c 4.91 -1.966 45.458 -3 69.882 -3.191 c 24.424 0.19 64.973 1.225 69.881 3.191 c 3.039 1.216 4.274 3.077 5.471 4.89 c 1.187 1.786 2.972 4.492 6.543 4.122 c 0.816 -0.066 5.299 -0.123 12.022 -0.161 c -1.377 6.78 -4.161 16.381 -9.648 24.329 H 171.732 z M 378.614 220.218 l -4.121 35.857 c -29.182 1.443 -68.105 2.459 -118.492 2.459 c -50.386 0 -89.311 -1.017 -118.492 -2.459 l -4.122 -35.857 H 378.614 z M 47.134 177.135 c -0.132 -0.038 -0.275 -0.067 -0.418 -0.095 c 0.01 -0.152 0.048 -0.304 0.124 -0.447 c 0.142 -0.237 1.643 -2.335 10.227 -2.335 c 9.031 0 12.554 4.691 13.932 8.394 c -4.331 0.039 -7.227 0.086 -8.053 0.143 c -0.209 0.02 -0.428 0.057 -0.665 0.104 C 57.627 179.499 50.923 177.99 47.134 177.135 z M 97.007 369.478 c 0 4.862 -3.959 8.822 -8.822 8.822 h -49.18 c -4.843 0 -8.784 -3.96 -8.784 -8.822 v -69.967 c 0 -0.059 -0.009 -0.104 -0.009 -0.152 c 0 -0.029 -0.029 -0.674 -0.01 -1.738 c 5.764 40.027 16.77 60.852 32.751 61.896 c 9.543 0.618 20.911 1.168 34.053 1.635 V 369.478 z M 256 356.535 c -90.688 0 -155.499 -1.225 -192.609 -3.656 c -23.703 -1.548 -31.508 -72.588 -30.996 -132.955 c 0 -0.493 0.01 -0.864 0.01 -1.101 c 1.073 -5.157 24.053 -26.086 30.331 -29.086 c 0.123 -0.048 0.237 -0.105 0.361 -0.162 c 0.142 -0.066 0.285 -0.124 0.408 -0.152 c 1.092 -0.057 4.986 -0.114 10.692 -0.152 c 0.304 0.095 0.608 0.152 0.941 0.152 c 0.341 0 0.665 -0.067 0.978 -0.161 c 4.426 -0.029 9.743 -0.048 15.593 -0.066 c 0.38 0.142 0.769 0.228 1.159 0.228 c 0.417 0 0.826 -0.085 1.206 -0.237 c 19.658 -0.047 44.461 -0.038 61.231 0.028 c 1.339 7.207 3.855 16.191 8.566 24.357 H 59.26 c -1.7 0 -3.125 1.282 -3.305 2.973 c -0.759 7.359 -2.611 31.774 5.774 37.224 c 8.451 5.5 72.854 11.415 194.271 11.415 s 185.819 -5.915 194.271 -11.415 c 8.386 -5.45 6.533 -29.865 5.774 -37.224 c -0.181 -1.69 -1.605 -2.973 -3.305 -2.973 H 348.131 c 4.7 -8.167 7.227 -17.15 8.566 -24.357 c 16.77 -0.066 41.574 -0.076 61.229 -0.028 c 0.38 0.152 0.788 0.237 1.207 0.237 c 0.39 0 0.778 -0.085 1.148 -0.228 c 5.858 0.019 11.187 0.038 15.603 0.066 c 0.313 0.094 0.635 0.161 0.978 0.161 c 0.323 0 0.637 -0.067 0.932 -0.152 c 5.716 0.038 9.609 0.095 10.701 0.152 c 0.123 0.028 0.267 0.085 0.419 0.152 c 0.113 0.057 0.227 0.114 0.341 0.152 c 6.277 3.001 29.267 23.939 30.34 29.086 c 0 0.247 0.009 0.618 0.009 1.111 c 0.514 60.367 -7.292 131.407 -30.994 132.955 C 411.498 355.31 346.688 356.535 256 356.535 z M 130.775 255.734 c -42.618 -2.327 -62.37 -5.556 -65.428 -7.53 c -3.105 -2.023 -4.017 -15.527 -3.048 -27.986 h 64.393 L 130.775 255.734 z M 381.226 255.734 l 4.082 -35.516 h 64.395 c 0.968 12.459 0.056 25.963 -3.05 27.986 C 443.595 250.178 423.844 253.407 381.226 255.734 z M 481.788 299.349 c -0.009 0.058 -0.009 0.104 -0.009 0.162 v 69.967 c 0 4.862 -3.94 8.822 -8.784 8.822 h -49.19 c -4.852 0 -8.812 -3.96 -8.812 -8.822 v -8.327 c 13.143 -0.467 24.51 -1.017 34.053 -1.635 c 15.982 -1.044 26.988 -21.868 32.753 -61.887 C 481.808 298.685 481.788 299.33 481.788 299.349 z" stroke-linecap="round"/>
</g>
		<g transform="matrix(1 0 0 1 155.6795 -19.2535)" id="Calque_1">
<path style="stroke: none; stroke-width: 1; stroke-dasharray: none; stroke-linecap: butt; stroke-dashoffset: 0; stroke-linejoin: miter; stroke-miterlimit: 4; is-custom-font: none; font-file-url: none; fill: rgb(5,44,73); fill-rule: nonzero; opacity: 1;" transform=" translate(-411.6795, -236.7465)" d="M 411.68 220.228 c -9.108 0 -16.523 7.407 -16.523 16.523 c 0 9.106 7.415 16.514 16.523 16.514 c 9.105 0 16.522 -7.407 16.522 -16.514 C 428.202 227.635 420.785 220.228 411.68 220.228 z M 411.68 246.618 c -5.441 0 -9.876 -4.425 -9.876 -9.867 c 0 -5.45 4.435 -9.876 9.876 -9.876 c 5.44 0 9.875 4.426 9.875 9.876 C 421.555 242.193 417.12 246.618 411.68 246.618 z" stroke-linecap="round"/>
</g>
		<g transform="matrix(1 0 0 1 -0.0005 -52.303)" id="Calque_1">
<path style="stroke: none; stroke-width: 1; stroke-dasharray: none; stroke-linecap: butt; stroke-dashoffset: 0; stroke-linejoin: miter; stroke-miterlimit: 4; is-custom-font: none; font-file-url: none; fill: rgb(5,44,73); fill-rule: nonzero; opacity: 1;" transform=" translate(-255.9995, -203.697)" d="M 317.586 200.373 H 256 h -61.587 c -1.835 0 -3.324 1.488 -3.324 3.324 c 0 1.836 1.488 3.324 3.324 3.324 H 256 h 61.586 c 1.836 0 3.324 -1.488 3.324 -3.324 C 320.91 201.862 319.422 200.373 317.586 200.373 z" stroke-linecap="round"/>
</g>
		<g transform="matrix(1 0 0 1 159.098 45.9415)" id="Calque_1">
<path style="stroke: none; stroke-width: 1; stroke-dasharray: none; stroke-linecap: butt; stroke-dashoffset: 0; stroke-linejoin: miter; stroke-miterlimit: 4; is-custom-font: none; font-file-url: none; fill: rgb(5,44,73); fill-rule: nonzero; opacity: 1;" transform=" translate(-415.098, -301.9415)" d="M 415.098 282 c -10.996 0 -19.941 8.946 -19.941 19.942 s 8.945 19.941 19.941 19.941 c 10.997 0 19.941 -8.945 19.941 -19.941 S 426.095 282 415.098 282 z M 415.098 315.236 c -7.331 0 -13.294 -5.964 -13.294 -13.294 c 0 -7.331 5.963 -13.295 13.294 -13.295 c 7.33 0 13.294 5.964 13.294 13.295 C 428.392 309.272 422.428 315.236 415.098 315.236 z" stroke-linecap="round"/>
</g>
</g>
</g>
<g transform="matrix(1 0 0 1 645.5276 450.4014)" style="" id="333881">
		
<path xml:space="preserve" font-family="Aclonica" font-size="108" font-style="normal" font-weight="normal" style="stroke: none; stroke-width: 1; stroke-dasharray: none; stroke-linecap: butt; stroke-dashoffset: 0; stroke-linejoin: miter; stroke-miterlimit: 4; is-custom-font: none; font-file-url: none; fill: rgb(0,0,0); fill-rule: nonzero; opacity: 1; white-space: pre;" d="M-233.77-23.18L-233.77-23.18L-242.79-19.39Q-243.84-22.82-245.61-25.66Q-247.38-28.51-249.83-30.54Q-252.28-32.57-255.39-33.70Q-258.50-34.84-262.20-34.84L-262.20-34.84Q-266.15-34.84-269.45-33.55Q-272.74-32.25-275.35-29.99Q-277.96-27.72-279.91-24.71Q-281.87-21.71-283.18-18.31Q-284.50-14.90-285.13-11.27Q-285.77-7.63-285.77-4.15L-285.77-4.15Q-285.77 1.39-284.48 6.87Q-283.18 12.36-280.36 16.74Q-277.54 21.11-273.06 23.83Q-268.58 26.54-262.20 26.54L-262.20 26.54Q-258.82 26.54-255.81 25.41Q-252.81 24.28-250.36 22.30Q-247.90 20.32-246.06 17.63Q-244.21 14.94-243.11 11.83L-243.11 11.83L-233.98 15.47Q-235.99 20.48-239.47 24.25Q-242.95 28.02-247.40 30.50Q-251.86 32.98-256.95 34.22Q-262.04 35.46-267.21 35.46L-267.21 35.46Q-272.79 35.46-277.94 34.09Q-283.08 32.71-287.51 30.18Q-291.94 27.65-295.55 24.07Q-299.16 20.48-301.72 16.10Q-304.28 11.73-305.67 6.58Q-307.07 1.44-307.07-4.15L-307.07-4.15Q-307.07-9.74-305.67-14.88Q-304.28-20.02-301.72-24.42Q-299.16-28.83-295.55-32.41Q-291.94-36.00-287.51-38.53Q-283.08-41.06-277.94-42.43Q-272.79-43.80-267.21-43.80L-267.21-43.80Q-261.83-43.80-256.68-42.54Q-251.54-41.27-247.11-38.71Q-242.68-36.16-239.23-32.28Q-235.78-28.40-233.77-23.18ZM-161.37-26.98L-161.37 33.93L-179.19 33.93L-179.19 26.65Q-182.36 30.97-186.81 33.06Q-191.27 35.14-196.59 35.14L-196.59 35.14Q-203.55 35.14-209.04 32.66Q-214.52 30.18-218.32 25.89Q-222.12 21.59-224.12 15.79Q-226.13 9.99-226.13 3.34L-226.13 3.34Q-226.13-3.30-224.12-9.10Q-222.12-14.90-218.32-19.20Q-214.52-23.50-209.04-25.98Q-203.55-28.46-196.59-28.46L-196.59-28.46Q-193.06-28.46-189.87-27.40Q-186.68-26.35-184.02-24.42Q-181.35-22.50-179.32-19.78Q-177.29-17.07-176.13-13.74L-176.13-13.74L-168.22-26.98L-161.37-26.98ZM-179.30 3.34L-179.30 3.34Q-179.30 0.97-179.53-1.67Q-179.77-4.31-180.35-6.89Q-180.93-9.47-181.96-11.82Q-182.99-14.17-184.60-15.99Q-186.21-17.81-188.47-18.86Q-190.74-19.91-193.75-19.91L-193.75-19.91Q-196.75-19.91-198.97-18.83Q-201.18-17.75-202.76-15.93Q-204.35-14.11-205.37-11.74Q-206.40-9.37-206.98-6.78Q-207.56-4.20-207.80-1.59Q-208.04 1.02-208.04 3.34L-208.04 3.34Q-208.04 5.66-207.80 8.30Q-207.56 10.93-206.98 13.52Q-206.40 16.10-205.37 18.48Q-204.35 20.85-202.76 22.67Q-201.18 24.49-198.97 25.57Q-196.75 26.65-193.75 26.65L-193.75 26.65Q-191.00 26.65-188.87 25.52Q-186.73 24.38-185.12 22.48Q-183.52 20.59-182.41 18.16Q-181.30 15.73-180.62 13.15Q-179.93 10.57-179.61 8.01Q-179.30 5.45-179.30 3.34ZM-94.71-21.60L-94.71-21.60L-104.73-4.99Q-105.36-7.10-106.37-9.74Q-107.37-12.37-108.84-14.67Q-110.32-16.96-112.38-18.52Q-114.43-20.07-117.12-20.07L-117.12-20.07Q-119.60-20.07-121.42-18.81Q-123.24-17.54-124.51-15.51Q-125.77-13.48-126.59-10.92Q-127.41-8.37-127.85-5.76Q-128.30-3.15-128.46-0.75Q-128.62 1.65-128.62 3.39L-128.62 3.39L-128.62 33.93L-146.50 33.93L-146.50-26.98L-139.64-26.98L-132.42-12.80Q-130.94-16.22-129.04-19.10Q-127.14-21.97-124.66-24.05Q-122.19-26.14-119.05-27.30Q-115.91-28.46-111.96-28.46L-111.96-28.46Q-109.90-28.46-107.37-28.11Q-104.84-27.77-102.41-26.95Q-99.98-26.14-97.93-24.82Q-95.87-23.50-94.71-21.60ZM-34.59 5.56L-34.59 33.93L-55.53 33.93L-55.53-42.01L-18.19-42.01Q-12.92-42.01-8.02-40.77Q-3.11-39.53 0.66-36.87Q4.43-34.21 6.67-29.99Q8.91-25.77 8.91-19.76L8.91-19.76Q8.91-15.06 6.93-10.92Q4.96-6.78 1.66-3.54Q-1.63-0.30-5.91 1.84Q-10.18 3.97-14.77 4.66L-14.77 4.66Q-12.71 8.14-10.47 11.25Q-8.23 14.36-5.93 17.08Q-3.64 19.79-1.37 22.09Q0.90 24.38 2.95 26.28L2.95 26.28Q7.80 30.71 12.55 33.93L12.55 33.93L-13.55 33.93Q-16.72 30.92-19.56 26.70L-19.56 26.70Q-21.99 23.12-24.44 17.82Q-26.89 12.52-28.21 5.56L-28.21 5.56L-34.59 5.56ZM-12.34-19.76L-12.34-19.76Q-12.34-27.40-16.06-30.99Q-19.78-34.57-27.21-34.57L-27.21-34.57L-34.59-34.57L-34.59-1.62L-27.21-1.62Q-23.26-1.62-20.43-3.12Q-17.61-4.62-15.82-7.13Q-14.03-9.63-13.18-12.90Q-12.34-16.17-12.34-19.76ZM33.70 5.03L33.70 5.03Q36.97 5.77 40.24 6.19Q43.51 6.61 46.83 6.61L46.83 6.61Q50.31 6.61 53.29 5.95Q56.27 5.29 58.46 3.74Q60.64 2.18 61.91-0.40Q63.18-2.99 63.18-6.84L63.18-6.84Q63.18-9.95 62.33-12.53Q61.49-15.12 59.83-16.96Q58.17-18.81 55.74-19.84Q53.31-20.86 50.10-20.86L50.10-20.86Q47.09-20.86 44.69-19.76Q42.29-18.65 40.47-16.78Q38.65-14.90 37.36-12.43Q36.07-9.95 35.23-7.26Q34.38-4.57 34.01-1.83Q33.64 0.92 33.64 3.34L33.64 3.34Q33.64 3.76 33.64 4.18Q33.64 4.61 33.70 5.03ZM77.62-6.99L77.62-6.99Q77.62-3.25 76.41-0.32Q75.20 2.60 73.12 4.82Q71.03 7.03 68.29 8.56Q65.55 10.09 62.44 11.07Q59.33 12.04 56.03 12.46Q52.73 12.89 49.62 12.89L49.62 12.89Q45.67 12.89 41.82 12.33Q37.97 11.78 34.22 10.57L34.22 10.57Q34.80 14.05 36.07 17.18Q37.34 20.32 39.45 22.67Q41.55 25.01 44.64 26.39Q47.72 27.76 51.94 27.76L51.94 27.76Q54.74 27.76 57.27 26.91Q59.80 26.07 61.91 24.54Q64.02 23.01 65.63 20.90Q67.24 18.79 68.24 16.21L68.24 16.21L75.94 19.06Q74.20 23.22 71.16 26.25Q68.13 29.29 64.31 31.26Q60.49 33.24 56.19 34.19Q51.89 35.14 47.67 35.14L47.67 35.14Q40.71 35.14 34.80 32.79Q28.90 30.45 24.63 26.23Q20.36 22.01 17.93 16.16Q15.50 10.30 15.50 3.34L15.50 3.34Q15.50-3.62 17.93-9.47Q20.36-15.33 24.63-19.55Q28.90-23.76 34.80-26.11Q40.71-28.46 47.67-28.46L47.67-28.46Q51.05-28.46 54.58-27.98Q58.11-27.51 61.44-26.48Q64.76-25.45 67.71-23.82Q70.66-22.18 72.85-19.78Q75.04-17.38 76.33-14.22Q77.62-11.06 77.62-6.99ZM151.03-0.98L151.03-0.98Q151.03 5.19 149.53 11.88Q148.03 18.58 145.34 25.01Q142.65 31.45 138.90 37.12Q135.16 42.79 130.68 46.90L130.68 46.90L123.98 43.26Q125.40 40.62 126.67 37.35Q127.93 34.09 128.96 30.42Q129.99 26.76 130.81 22.85Q131.62 18.95 132.18 15.13Q132.73 11.30 133.02 7.69Q133.31 4.08 133.31 0.97L133.31 0.97Q133.31-1.09 133.15-3.44Q133.00-5.78 132.50-8.13Q131.99-10.48 131.15-12.64Q130.31-14.80 128.91-16.43Q127.51-18.07 125.53-19.07Q123.56-20.07 120.87-20.07L120.87-20.07Q118.23-20.07 116.17-18.89Q114.12-17.70 112.54-15.78Q110.95-13.85 109.82-11.37Q108.69-8.89 107.97-6.28Q107.26-3.67 106.95-1.14Q106.63 1.39 106.63 3.39L106.63 3.39L106.63 33.93L88.75 33.93L88.75-26.98L95.61-26.98L103.78-12.80Q105.26-16.33 107.47-19.23Q109.69-22.13 112.48-24.19Q115.28-26.24 118.68-27.35Q122.08-28.46 126.04-28.46L126.04-28.46Q132.36-28.46 137.06-26.40Q141.75-24.34 144.86-20.68Q147.97-17.01 149.50-11.98Q151.03-6.94 151.03-0.98ZM185.10-19.91L185.10 33.93L167.22 33.93L167.22-19.91L156.15-19.91L156.15-26.98L167.22-26.98L167.22-49.39L185.10-49.39L185.10-26.98L203.55-26.98L203.55-19.91L185.10-19.91ZM271.21-26.98L271.21 33.93L253.39 33.93L253.39 26.65Q250.22 30.97 245.77 33.06Q241.31 35.14 235.99 35.14L235.99 35.14Q229.03 35.14 223.54 32.66Q218.06 30.18 214.26 25.89Q210.46 21.59 208.46 15.79Q206.46 9.99 206.46 3.34L206.46 3.34Q206.46-3.30 208.46-9.10Q210.46-14.90 214.26-19.20Q218.06-23.50 223.54-25.98Q229.03-28.46 235.99-28.46L235.99-28.46Q239.52-28.46 242.71-27.40Q245.90-26.35 248.56-24.42Q251.23-22.50 253.26-19.78Q255.29-17.07 256.45-13.74L256.45-13.74L264.36-26.98L271.21-26.98ZM253.28 3.34L253.28 3.34Q253.28 0.97 253.05-1.67Q252.81-4.31 252.23-6.89Q251.65-9.47 250.62-11.82Q249.59-14.17 247.98-15.99Q246.37-17.81 244.11-18.86Q241.84-19.91 238.83-19.91L238.83-19.91Q235.83-19.91 233.61-18.83Q231.40-17.75 229.82-15.93Q228.23-14.11 227.21-11.74Q226.18-9.37 225.60-6.78Q225.02-4.20 224.78-1.59Q224.54 1.02 224.54 3.34L224.54 3.34Q224.54 5.66 224.78 8.30Q225.02 10.93 225.60 13.52Q226.18 16.10 227.21 18.48Q228.23 20.85 229.82 22.67Q231.40 24.49 233.61 25.57Q235.83 26.65 238.83 26.65L238.83 26.65Q241.58 26.65 243.71 25.52Q245.85 24.38 247.46 22.48Q249.06 20.59 250.17 18.16Q251.28 15.73 251.96 13.15Q252.65 10.57 252.97 8.01Q253.28 5.45 253.28 3.34ZM303.91-36.53L303.91 33.93L286.08 33.93L286.08-55.04L292.94-55.04L303.91-36.53Z"/></g>
</svg>